<svg width="51" height="38" viewBox="0 0 51 38" fill="none" xmlns="http://www.w3.org/2000/svg">
<path d="M12.16 0.719999C6.04 0.719999 1.72 4.55999 1.72 10.8C1.72 17.16 6.4 20.04 10.48 20.04C12.16 20.04 13.24 19.56 13.96 18.84L14.44 19.2C12.76 24.72 7.72 29.16 0.76 31.8L8.32 37.56C18.64 32.88 23.68 24.12 23.68 14.76C23.68 6.84 19.72 0.719999 12.16 0.719999ZM38.8 0.719999C32.68 0.719999 28.36 4.55999 28.36 10.8C28.36 17.16 33.04 20.04 37.12 20.04C38.8 20.04 39.88 19.56 40.6 18.84L41.08 19.2C39.4 24.72 34.36 29.16 27.4 31.8L34.96 37.56C45.28 32.88 50.32 24.12 50.32 14.76C50.32 6.84 46.36 0.719999 38.8 0.719999Z" fill="#FCD54C"/>
</svg>
