<svg width="20" height="19" viewBox="0 0 20 19" fill="none" xmlns="http://www.w3.org/2000/svg">
<path d="M17.6522 0.761719H1.35362C0.606794 0.761719 0 1.35136 0 2.0752V17.6662C0 18.39 0.606794 18.9797 1.35362 18.9797H17.6522C18.399 18.9797 19.0101 18.39 19.0101 17.6662V2.0752C19.0101 1.35136 18.399 0.761719 17.6522 0.761719ZM5.74545 16.3771H2.92789V7.68292H5.74969V16.3771H5.74545ZM4.33667 6.4955C3.43284 6.4955 2.70299 5.79199 2.70299 4.92989C2.70299 4.06779 3.43284 3.36429 4.33667 3.36429C5.23625 3.36429 5.97035 4.06779 5.97035 4.92989C5.97035 5.79606 5.24049 6.4955 4.33667 6.4955ZM16.3071 16.3771H13.4895V12.1479C13.4895 11.1395 13.4683 9.84224 12.0256 9.84224C10.5574 9.84224 10.3325 10.9402 10.3325 12.0748V16.3771H7.51491V7.68292H10.2179V8.87034H10.2561C10.6337 8.18717 11.5545 7.46739 12.9251 7.46739C15.7766 7.46739 16.3071 9.26886 16.3071 11.6112V16.3771Z" fill="#E8E8E8"/>
</svg>
