<svg width="17" height="18" viewBox="0 0 17 18" fill="none" xmlns="http://www.w3.org/2000/svg">
<path d="M17 5.82992C17 4.87961 16.7888 4.35166 16.5776 3.71812C16.3665 3.19017 16.0497 2.66222 15.6273 2.23986C15.205 1.71191 14.677 1.50073 14.1491 1.28955C13.6211 1.07837 12.9876 0.972778 12.0373 0.867188C11.087 0.867188 10.7702 0.867188 8.4472 0.867188C6.22981 0.867188 5.91304 0.867188 4.96273 0.867188C4.01242 0.867188 3.48447 1.07837 2.85093 1.28955C2.32298 1.50073 1.79503 1.8175 1.37267 2.23986C0.95031 2.76781 0.63354 3.19017 0.42236 3.82371C0.21118 4.35166 0.10559 4.9852 0 5.82992C0 6.78023 0 7.097 0 9.31439C0 11.6374 0 11.9541 0 12.7989C0 13.7492 0.21118 14.2771 0.42236 14.9107C0.63354 15.4386 0.95031 15.9666 1.37267 16.3889C1.90062 16.9169 2.32298 17.1281 2.85093 17.3392C3.37888 17.5504 4.01242 17.656 4.96273 17.7616C5.91304 17.7616 6.12422 17.7616 8.4472 17.7616C10.7702 17.7616 11.087 17.7616 11.9317 17.7616C12.882 17.7616 13.4099 17.5504 14.0435 17.3392C14.5714 17.1281 15.0994 16.8113 15.5217 16.3889C16.0497 15.861 16.2609 15.4386 16.472 14.9107C16.6832 14.3827 16.7888 13.7492 16.8944 12.7989C17 11.8486 16.8944 11.6374 16.8944 9.31439C16.8944 6.99141 17 6.78023 17 5.82992ZM8.4472 13.7492C6.01863 13.7492 4.11801 11.743 4.11801 9.41998C4.11801 6.99141 6.12422 5.09079 8.4472 5.09079C10.8758 5.09079 12.7764 7.097 12.7764 9.41998C12.882 11.743 10.8758 13.7492 8.4472 13.7492ZM12.9876 5.82992C12.4596 5.82992 11.9317 5.40756 11.9317 4.77402C11.9317 4.24607 12.354 3.71812 12.9876 3.71812C13.5155 3.71812 14.0435 4.14048 14.0435 4.77402C14.0435 5.40756 13.6211 5.82992 12.9876 5.82992Z" fill="#E8E8E8"/>
</svg>
