<svg width="18" height="16" viewBox="0 0 18 16" fill="none" xmlns="http://www.w3.org/2000/svg">
<path d="M15.6346 4.27361C15.6457 4.44247 15.6457 4.61137 15.6457 4.78023C15.6457 9.93077 12.0522 15.8654 5.48429 15.8654C3.46084 15.8654 1.58116 15.2261 0 14.1164C0.287493 14.1526 0.563891 14.1646 0.862445 14.1646C2.53203 14.1646 4.06898 13.5495 5.29631 12.5001C3.72621 12.4639 2.41042 11.3421 1.95708 9.79811C2.17824 9.83427 2.39936 9.85841 2.63158 9.85841C2.95222 9.85841 3.2729 9.81014 3.57142 9.72575C1.93499 9.36385 0.70762 7.79578 0.70762 5.90201V5.85378C1.18305 6.14328 1.73595 6.32421 2.32193 6.3483C1.35997 5.64868 0.729743 4.45454 0.729743 3.10356C0.729743 2.37984 0.906622 1.71642 1.21624 1.13743C2.97431 3.50162 5.61695 5.04556 8.5802 5.21446C8.52493 4.92496 8.49175 4.62344 8.49175 4.32188C8.49175 2.17478 10.084 0.425781 12.0632 0.425781C13.0915 0.425781 14.0202 0.896206 14.6726 1.65613C15.4798 1.48726 16.2538 1.16157 16.9393 0.715276C16.6739 1.61996 16.11 2.37988 15.3692 2.86234C16.0879 2.77794 16.7845 2.56077 17.4258 2.25925C16.9394 3.0312 16.3312 3.71872 15.6346 4.27361Z" fill="#E8E8E8"/>
</svg>
