<svg width="20" height="15" viewBox="0 0 20 15" fill="none" xmlns="http://www.w3.org/2000/svg">
<path fill-rule="evenodd" clip-rule="evenodd" d="M7.98844 10.4533V4.84149C9.98064 5.77891 11.5236 6.68449 13.3485 7.66082C11.8433 8.49553 9.98064 9.4321 7.98844 10.4533ZM19.091 2.05047C18.7474 1.59771 18.1616 1.24528 17.5381 1.1286C15.7053 0.780546 4.27099 0.779556 2.43915 1.1286C1.93911 1.22234 1.49384 1.44892 1.11133 1.80096C-0.500362 3.29686 0.00466618 11.3189 0.393147 12.6183C0.556507 13.1808 0.76769 13.5864 1.03365 13.8527C1.37631 14.2047 1.84547 14.4471 2.38436 14.5558C3.89345 14.868 11.668 15.0425 17.5062 14.6027C18.0441 14.509 18.5202 14.2588 18.8958 13.8918C20.3859 12.4019 20.2843 3.92932 19.091 2.05047Z" fill="#E8E8E8"/>
</svg>
